STARTFONT 2.1
COMMENT
COMMENT Converted from TrueType font "albas.ttf" by "ttf2bdf 2.6".
COMMENT
FONT -FreeType-Alba Super-Medium-R-Normal--25-180-100-100-P-162-ISO10646-1
SIZE 18 100 100
FONTBOUNDINGBOX 38 49 -4 -18
STARTPROPERTIES 20
FOUNDRY "FreeType"
FAMILY_NAME "Alba Super"
WEIGHT_NAME "Medium"
SLANT "R"
SETWIDTH_NAME "Normal"
ADD_STYLE_NAME ""
PIXEL_SIZE 25
POINT_SIZE 180
RESOLUTION_X 100
RESOLUTION_Y 100
SPACING "P"
AVERAGE_WIDTH 162
CHARSET_REGISTRY "ISO10646"
CHARSET_ENCODING "1"
FONT_ASCENT 25
FONT_DESCENT 13
COPYRIGHT "Alba ©2001, Font"a"licious Fonts."
_TTF_FONTFILE "albas.ttf"
_TTF_PSNAME "AlbaSuper"
_XFREE86_GLYPH_RANGES "32_126 161_165 167_172 174_177 180_184 186_187 191_214 216_252 254_255 305 321_322 338_339 352_353 376 381_382 402 710_711 713 728_733 916 937 956 960 8208 8211_8212 8216_8218 8220_8222 8224_8226 8230 8240 8249_8250 8260 8482 8486 8706 8710 8719 8721 8729_8730 8734 8747 8776 8800 8804_8805 8946 9674 61441_61442"
ENDPROPERTIES
CHARS 239
STARTCHAR 0020
ENCODING 32
SWIDTH 280 0
DWIDTH 7 0
BBX 1 1 0 0
BITMAP
00
ENDCHAR
STARTCHAR 0021
ENCODING 33
SWIDTH 240 0
DWIDTH 6 0
BBX 7 23 0 -4
BITMAP
78
FC
CE
C6
C6
C6
C6
C6
C6
C6
C6
C6
CE
FE
FE
CE
C6
C6
CE
FE
FC
FC
78
ENDCHAR
STARTCHAR 0022
ENCODING 34
SWIDTH 480 0
DWIDTH 12 0
BBX 13 13 0 6
BITMAP
3DE0
7FF0
EF38
C618
C618
C618
C618
C618
EF38
FFF8
FFF8
7FF0
39E0
ENDCHAR
STARTCHAR 0023
ENCODING 35
SWIDTH 560 0
DWIDTH 14 0
BBX 15 18 0 1
BITMAP
1EF0
3FF8
719C
E00E
C006
C006
E00E
F19E
F19E
E00E
C006
C006
E006
F19E
FFFE
7FFC
3FF8
1EF0
ENDCHAR
STARTCHAR 0024
ENCODING 36
SWIDTH 480 0
DWIDTH 12 0
BBX 13 23 0 -4
BITMAP
0700
0F80
19E0
19F0
1F18
1C18
1C18
1878
18F8
18F8
18F0
18C0
78C0
F0C0
C1C0
C1C0
C780
F980
F980
FF80
7F80
1F80
0F00
ENDCHAR
STARTCHAR 0025
ENCODING 37
SWIDTH 760 0
DWIDTH 19 0
BBX 20 28 0 -7
BITMAP
001C00
003E00
1E3300
7F3300
61E300
D8E300
D8E700
D8C700
D8C700
E1CE00
FF8E00
7F9E00
7F9F80
1F1FE0
033B60
063330
063330
067330
0C7030
0C7870
1CFFF0
18FFE0
18FFE0
19C780
1FC000
1FC000
0F8000
070000
ENDCHAR
STARTCHAR 0026
ENCODING 38
SWIDTH 880 0
DWIDTH 22 0
BBX 22 15 0 1
BITMAP
000038
00003C
00006C
1E79EC
3FFFEC
7DDF2C
ECB62C
CCB46C
CCB46C
E4B60C
E4B71C
FFFFFC
7FFFFC
7FFFF8
1FCCF0
ENDCHAR
STARTCHAR 0027
ENCODING 39
SWIDTH 280 0
DWIDTH 7 0
BBX 7 13 0 6
BITMAP
38
7C
EE
C6
C6
C6
C6
C6
EE
FE
FE
7C
38
ENDCHAR
STARTCHAR 0028
ENCODING 40
SWIDTH 520 0
DWIDTH 13 0
BBX 14 27 0 -6
BITMAP
01F0
07F8
0F0C
1C0C
300C
70FC
61FC
E3FC
C7F8
C780
C700
C600
C600
C600
C600
C600
C700
E380
E1F8
F0FC
700C
7C0C
3F0C
1FFC
0FFC
07FC
01F0
ENDCHAR
STARTCHAR 0029
ENCODING 41
SWIDTH 520 0
DWIDTH 13 0
BBX 14 27 0 -6
BITMAP
7E00
FF80
C3C0
C0E0
C030
FC38
FE18
FF1C
7F8C
078C
038C
018C
018C
018C
018C
018C
038C
071C
7E1C
FC3C
C038
C0F8
C3F0
FFE0
FFC0
FF80
7E00
ENDCHAR
STARTCHAR 002A
ENCODING 42
SWIDTH 480 0
DWIDTH 12 0
BBX 13 14 0 -2
BITMAP
0700
0F80
19E0
78F8
E018
C010
E038
E078
E030
6720
3FE0
3FE0
3FE0
39C0
ENDCHAR
STARTCHAR 002B
ENCODING 43
SWIDTH 480 0
DWIDTH 12 0
BBX 13 16 0 -3
BITMAP
0700
0F80
18C0
38E0
6030
C018
C018
C018
E038
F8F8
F8F8
78F0
3FE0
1FC0
0F80
0700
ENDCHAR
STARTCHAR 002C
ENCODING 44
SWIDTH 280 0
DWIDTH 7 0
BBX 7 13 0 -7
BITMAP
38
7C
EE
C6
C6
C6
C6
C6
EE
FE
FE
7C
38
ENDCHAR
STARTCHAR 002D
ENCODING 45
SWIDTH 280 0
DWIDTH 7 0
BBX 7 9 0 2
BITMAP
38
7C
C6
C6
C6
FE
FE
7C
38
ENDCHAR
STARTCHAR 002E
ENCODING 46
SWIDTH 280 0
DWIDTH 7 0
BBX 7 10 0 -4
BITMAP
38
7C
EE
C6
C6
EE
FE
FE
7C
38
ENDCHAR
STARTCHAR 002F
ENCODING 47
SWIDTH 480 0
DWIDTH 12 0
BBX 14 28 -1 -7
BITMAP
0070
00F8
0198
0188
019C
0318
0318
0738
0638
0678
0E70
0C70
0CF0
18E0
18E0
19E0
31C0
31C0
3380
6380
6380
E700
C700
6F00
FE00
7E00
7E00
3C00
ENDCHAR
STARTCHAR 0030
ENCODING 48
SWIDTH 800 0
DWIDTH 20 0
BBX 21 23 0 -4
BITMAP
01FC00
07FF00
1F0780
3C01C0
300060
60F870
61FC30
C3FE38
C7FF18
C78718
C60318
C60318
C60318
C38638
E1FC38
E0F878
7000F0
7801F0
3E07E0
3FFFC0
1FFF80
07FF00
01FC00
ENDCHAR
STARTCHAR 0031
ENCODING 49
SWIDTH 240 0
DWIDTH 6 0
BBX 7 23 0 -4
BITMAP
38
FC
C6
C6
C6
C6
C6
C6
C6
C6
C6
C6
C6
C6
C6
C6
C6
C6
C6
FE
FE
FE
38
ENDCHAR
STARTCHAR 0032
ENCODING 50
SWIDTH 600 0
DWIDTH 15 0
BBX 16 23 0 -4
BITMAP
07E0
1FF8
383C
700C
E006
C386
C7C3
C7E3
C7E3
FEC3
FF87
FF87
7E0E
1C1E
383E
607E
C007
C003
C007
FFFF
FFFF
FFFE
7FFC
ENDCHAR
STARTCHAR 0033
ENCODING 51
SWIDTH 520 0
DWIDTH 13 0
BBX 14 23 0 -4
BITMAP
0FC0
3FE0
7870
6018
C01C
C70C
C78C
C78C
FE0C
F80C
F81C
7818
1F0C
0F8C
7F8C
FF0C
C01C
C01C
C07C
FFF8
FFF0
FFE0
7FC0
ENDCHAR
STARTCHAR 0034
ENCODING 52
SWIDTH 520 0
DWIDTH 13 0
BBX 14 23 0 -4
BITMAP
3870
FDF8
C78C
C78C
C78C
C78C
C78C
C78C
C78C
C78C
C38C
E00C
E00C
F80C
7F8C
7F8C
3F8C
0F8C
018C
01FC
01FC
01FC
0070
ENDCHAR
STARTCHAR 0035
ENCODING 53
SWIDTH 520 0
DWIDTH 13 0
BBX 14 23 0 -4
BITMAP
3FF8
7FFC
C00C
C00C
C00C
C7FC
C7FC
C07C
C038
C018
FF1C
FF8C
7F8C
7F8C
7F8C
FF0C
C01C
C03C
C078
FFF8
FFF0
FFE0
7F80
ENDCHAR
STARTCHAR 0036
ENCODING 54
SWIDTH 600 0
DWIDTH 15 0
BBX 16 23 0 -4
BITMAP
07E0
1FF8
3C1C
700E
6006
E3C6
C7FE
C03E
C00E
C006
C3C7
C7E3
C7E3
C7E3
C7E3
E3C7
E007
F00F
783E
7FFE
3FFC
1FF8
07E0
ENDCHAR
STARTCHAR 0037
ENCODING 55
SWIDTH 560 0
DWIDTH 14 0
BBX 15 23 0 -4
BITMAP
3FFC
FFFE
C006
C006
C004
FF8E
FF8E
FF1E
7F1C
033C
0638
0638
0678
0E70
0C70
0CF0
1CE0
18E0
19E0
1FC0
1FC0
1F80
0700
ENDCHAR
STARTCHAR 0038
ENCODING 56
SWIDTH 560 0
DWIDTH 14 0
BBX 14 23 0 -4
BITMAP
07C0
1FF0
3C78
3018
701C
630C
638C
638C
630C
601C
601C
C00C
C38C
C78C
C78C
C38C
E01C
E01C
F87C
7FF8
3FF0
1FE0
0FC0
ENDCHAR
STARTCHAR 0039
ENCODING 57
SWIDTH 600 0
DWIDTH 15 0
BBX 16 23 0 -4
BITMAP
07E0
1FF8
3C3C
700E
6006
E3C7
C7E3
C7E3
C7E3
C7E3
C3C3
E003
F003
7C03
7FE3
63C7
6007
700F
783E
7FFE
3FFC
1FF8
07E0
ENDCHAR
STARTCHAR 003A
ENCODING 58
SWIDTH 280 0
DWIDTH 7 0
BBX 7 15 0 -4
BITMAP
38
7C
C6
C6
C6
FE
FE
EE
C6
C6
EE
FE
FE
7C
38
ENDCHAR
STARTCHAR 003B
ENCODING 59
SWIDTH 280 0
DWIDTH 7 0
BBX 7 18 0 -7
BITMAP
38
7C
C6
C6
C6
FE
FE
EE
C6
C6
C6
C6
C6
EE
FE
FE
7C
38
ENDCHAR
STARTCHAR 003C
ENCODING 60
SWIDTH 320 0
DWIDTH 8 0
BBX 9 14 0 -2
BITMAP
0E00
1F00
3980
7180
E180
C380
C380
E180
F180
F980
7F80
3F80
1F00
0E00
ENDCHAR
STARTCHAR 003D
ENCODING 61
SWIDTH 480 0
DWIDTH 12 0
BBX 13 14 0 -2
BITMAP
3FE0
7FF0
C018
C018
C018
FFF8
FFF8
C018
C018
C018
FFF8
FFF8
7FF8
3FF0
ENDCHAR
STARTCHAR 003E
ENCODING 62
SWIDTH 320 0
DWIDTH 8 0
BBX 9 14 0 -2
BITMAP
3800
7C00
CE00
C700
C380
E180
E180
C380
C780
CF80
FF00
FE00
7C00
3800
ENDCHAR
STARTCHAR 003F
ENCODING 63
SWIDTH 600 0
DWIDTH 15 0
BBX 16 23 0 -4
BITMAP
07E0
1FF8
383C
700E
6006
C3C7
C7E3
C7E3
C7E3
FFE3
FFC7
F807
700F
183E
1FFE
1CFC
18F8
18E0
1CC0
1FC0
1FC0
0F80
0700
ENDCHAR
STARTCHAR 0040
ENCODING 64
SWIDTH 800 0
DWIDTH 20 0
BBX 21 23 0 -4
BITMAP
01FC00
07FF00
0F0780
1C01C0
300060
70F870
61FC30
E38E38
C73718
C67B18
C67B18
C67B18
C71A18
C39838
E1F838
F0F878
700070
7C01F0
3F07E0
3FFFC0
0FFF80
07FF00
01FC00
ENDCHAR
STARTCHAR 0041
ENCODING 65
SWIDTH 600 0
DWIDTH 15 0
BBX 20 29 0 -10
BITMAP
07E000
1FF800
3C3C00
700E00
600600
E3C700
C7E300
C7E300
C7E300
C7E300
C7C300
C60300
C60300
C60300
C7E300
C7E300
C7E300
C7E300
C66300
FE63C0
FE61E0
FE6070
387030
007830
007C70
003FF0
001FF0
000FE0
0003C0
ENDCHAR
STARTCHAR 0042
ENCODING 66
SWIDTH 520 0
DWIDTH 13 0
BBX 14 23 0 -4
BITMAP
0FC0
1FE0
7870
6018
E01C
C78C
C78C
C78C
C60C
C80C
C81C
C408
C70C
C78C
C78C
C70C
C81C
C81C
C87C
FFF8
FFF0
FFE0
7FC0
ENDCHAR
STARTCHAR 0043
ENCODING 67
SWIDTH 520 0
DWIDTH 13 0
BBX 14 23 0 -4
BITMAP
01F0
07F8
0F0C
1C0C
300C
707C
61FC
C3F8
C7F0
C780
C700
C600
C600
C380
E1F0
F078
700C
780C
3E0C
1FFC
0FFC
07FC
01F8
ENDCHAR
STARTCHAR 0044
ENCODING 68
SWIDTH 680 0
DWIDTH 17 0
BBX 18 23 0 -4
BITMAP
3FE000
7FF800
C03C00
C00E00
C00300
C7C380
C7E180
C7F1C0
C7F8C0
C678C0
C638C0
C618C0
C638C0
C671C0
C7E1C0
C7C3C0
C40380
C40F80
C43F00
FFFE00
FFFC00
FFF800
7FE000
ENDCHAR
STARTCHAR 0045
ENCODING 69
SWIDTH 520 0
DWIDTH 13 0
BBX 14 23 0 -4
BITMAP
01F0
07F8
0F0C
1C0C
300C
70FC
61FC
C3F8
C7F8
C00C
C00C
C00C
C7FC
C3FC
E1F8
F0F8
700C
780C
3E0C
1FFC
0FFC
07FC
01F8
ENDCHAR
STARTCHAR 0046
ENCODING 70
SWIDTH 480 0
DWIDTH 12 0
BBX 13 23 0 -4
BITMAP
0FE0
1FF0
3818
6018
E018
C3F8
C7F8
C7F0
C7E0
C030
C018
C018
C038
C7F8
C7F8
C7F8
C7F0
C600
C600
FE00
FE00
FE00
3800
ENDCHAR
STARTCHAR 0047
ENCODING 71
SWIDTH 800 0
DWIDTH 20 0
BBX 21 23 0 -4
BITMAP
01F800
07FF00
0F0780
1C01C0
3000E0
70F860
61FC60
C3FFE0
C7FFF8
C76018
C66018
C66018
C67F18
C37E38
E1FC38
F0F878
700070
7C01F0
3F07E0
3FFFC0
0FFF80
07FF00
01FC00
ENDCHAR
STARTCHAR 0048
ENCODING 72
SWIDTH 640 0
DWIDTH 16 0
BBX 21 29 0 -10
BITMAP
380E00
FE3F80
C63180
C63180
C63180
C63180
C7F180
C7F180
C00180
C00180
C00180
C7F180
C7F180
C7F180
C7F180
C63180
C63180
C63180
C63180
FE31E0
FE30F0
FC3038
383818
003C18
003E38
001FF8
000FF8
0007F0
0001E0
ENDCHAR
STARTCHAR 0049
ENCODING 73
SWIDTH 240 0
DWIDTH 6 0
BBX 7 23 0 -4
BITMAP
38
FC
C6
C6
C6
C6
C6
C6
C6
C6
C6
C6
C6
C6
C6
C6
C6
C6
C6
FE
FE
FE
38
ENDCHAR
STARTCHAR 004A
ENCODING 74
SWIDTH 520 0
DWIDTH 13 0
BBX 14 23 0 -4
BITMAP
0070
01F8
018C
018C
018C
018C
018C
018C
018C
018C
398C
7D8C
C78C
C78C
C78C
C30C
E01C
E01C
F87C
7FF8
3FF0
1FE0
0FC0
ENDCHAR
STARTCHAR 004B
ENCODING 75
SWIDTH 560 0
DWIDTH 14 0
BBX 19 29 0 -10
BITMAP
380000
FC0000
C60000
C6F000
C7F800
C71800
C71800
C71C00
C01800
C01C00
C00C00
C00600
C78600
C7C600
C7C600
C7C600
C6C600
C6C600
C6C600
FEC780
FEC3C0
FEC060
38E060
00F060
00F8E0
007FE0
003FE0
001FC0
000780
ENDCHAR
STARTCHAR 004C
ENCODING 76
SWIDTH 400 0
DWIDTH 10 0
BBX 11 23 0 -4
BITMAP
3800
FC00
C600
C600
C600
C600
C600
C600
C600
C600
C600
C600
C600
C600
C7C0
C3E0
E060
E060
F860
7FE0
7FE0
3FE0
0FC0
ENDCHAR
STARTCHAR 004D
ENCODING 77
SWIDTH 800 0
DWIDTH 20 0
BBX 25 29 0 -10
BITMAP
0FDF8000
1FFFC000
3820E000
60003000
E0003800
C30E1800
C78F1800
C78F1800
C78F1800
C78F1800
C78F1800
C78F1800
C78F1800
C78F1800
C78F1800
C78F1800
C78F1800
C78F1800
C78F1800
FFFF1E00
FFFF0F00
FFFF0380
38738180
0003C180
0003E380
0001FF80
0000FF80
00007F00
00001E00
ENDCHAR
STARTCHAR 004E
ENCODING 78
SWIDTH 520 0
DWIDTH 13 0
BBX 18 29 0 -10
BITMAP
0FC000
1FE000
387800
601800
E01C00
C30C00
C78C00
C78C00
C78C00
C78C00
C78C00
C78C00
C78C00
C78C00
C78C00
C78C00
C78C00
C78C00
C78C00
FF8F00
FF8780
FF81C0
39C0C0
01E0C0
01F1C0
00FFC0
007FC0
003F80
000F00
ENDCHAR
STARTCHAR 004F
ENCODING 79
SWIDTH 800 0
DWIDTH 20 0
BBX 21 23 0 -4
BITMAP
01FC00
07FF00
1F0780
3C01C0
300060
60F870
61FC30
C3FE38
C7FF18
C78718
C60318
C60318
C60318
C38638
E1FC38
E0F878
7000F0
7801F0
3E07E0
3FFFC0
1FFF80
07FF00
01FC00
ENDCHAR
STARTCHAR 0050
ENCODING 80
SWIDTH 600 0
DWIDTH 15 0
BBX 16 23 0 -4
BITMAP
07E0
1FF8
3C3C
700E
6006
E3C7
C7E3
C7E3
C7E3
C7C3
C787
C607
C40F
C63E
C7FE
C7FC
C7F8
C7E0
C600
FE00
FE00
FC00
7800
ENDCHAR
STARTCHAR 0051
ENCODING 81
SWIDTH 800 0
DWIDTH 20 0
BBX 21 29 0 -10
BITMAP
01FC00
07FF00
0F0780
1C01C0
380060
70F870
63FE30
E3FE38
C7FF18
C43718
C41B18
C41F18
C70F18
C38E18
E38C38
E18038
F18070
7980F0
7F83E0
3F8FE0
1F8FC0
0F8F80
018E00
018C00
018C00
01FC00
01FC00
00F800
007800
ENDCHAR
STARTCHAR 0052
ENCODING 82
SWIDTH 600 0
DWIDTH 15 0
BBX 16 23 0 -4
BITMAP
07E0
1FF8
3C3C
700E
6006
E3C7
C7E3
C7E3
C7E3
C7E3
C7C3
C607
C60F
C61E
C63E
C61C
C706
C706
C7C6
FFFE
FFFE
FDFE
787C
ENDCHAR
STARTCHAR 0053
ENCODING 83
SWIDTH 480 0
DWIDTH 12 0
BBX 13 23 0 -4
BITMAP
01E0
07F0
0E18
0C18
1818
1878
18F8
18F0
18E0
18C0
18C0
18C0
18C0
18C0
38C0
70C0
C1C0
C1C0
C3C0
FF80
FF80
FF00
7C00
ENDCHAR
STARTCHAR 0054
ENCODING 84
SWIDTH 560 0
DWIDTH 14 0
BBX 15 23 0 -4
BITMAP
3FF8
FFFC
C006
C006
C004
FC7E
FC7E
7C7E
3C7C
0C60
0C60
0C60
0C60
0C60
0C60
0C60
0C60
0C60
0C60
0FE0
0FE0
0FE0
0380
ENDCHAR
STARTCHAR 0055
ENCODING 85
SWIDTH 520 0
DWIDTH 13 0
BBX 14 23 0 -4
BITMAP
3870
FCF8
C78C
C78C
C78C
C78C
C78C
C78C
C78C
C78C
C78C
C78C
C78C
C78C
C78C
C30C
E01C
E01C
F87C
7FF8
7FF0
1FE0
0FC0
ENDCHAR
STARTCHAR 0056
ENCODING 86
SWIDTH 600 0
DWIDTH 15 0
BBX 17 23 -1 -4
BITMAP
380F00
7E1F80
E61980
E33180
633380
E36380
71E380
71E780
71C700
38C700
38CF00
380E00
1C0E00
1C1C00
1C1C00
0E1C00
0E3800
0E3800
077800
07F000
03F000
03F000
01E000
ENDCHAR
STARTCHAR 0057
ENCODING 87
SWIDTH 800 0
DWIDTH 20 0
BBX 21 23 0 -4
BITMAP
3870E0
FDFBF0
C78F18
C78F18
C78F18
C78F18
C78F18
C78F18
C78F18
C78F18
C78F18
C78F18
C78F18
C78F18
C78F18
C38618
E00038
E00038
F820F8
7FFFF0
7FFFE0
1FFFC0
0FDF80
ENDCHAR
STARTCHAR 0058
ENCODING 88
SWIDTH 520 0
DWIDTH 13 0
BBX 14 23 0 -4
BITMAP
3870
FCF8
C78C
C78C
C78C
C78C
C78C
C78C
C30C
C00C
C00C
C00C
C30C
C78C
C78C
C78C
C78C
C78C
C78C
FFFC
FFFC
FEFC
3870
ENDCHAR
STARTCHAR 0059
ENCODING 89
SWIDTH 520 0
DWIDTH 13 0
BBX 14 23 0 -4
BITMAP
3870
FCF8
C78C
C78C
C78C
C78C
C78C
C78C
C30C
E00C
E00C
F80C
C78C
C78C
C78C
C30C
E01C
E01C
F87C
7FF8
7FF0
1FE0
0FC0
ENDCHAR
STARTCHAR 005A
ENCODING 90
SWIDTH 560 0
DWIDTH 14 0
BBX 15 23 0 -4
BITMAP
3FF8
7FFC
600E
6006
7006
7F8E
7F1E
7E1C
1E3C
0C38
1C70
18F0
38E0
31E0
63F8
E3FC
C00E
C006
C00E
FFFE
FFFE
FFFC
7FF8
ENDCHAR
STARTCHAR 005B
ENCODING 91
SWIDTH 440 0
DWIDTH 11 0
BBX 11 31 0 -9
BITMAP
0FC0
3FE0
7860
6060
E060
C3E0
C7E0
C7E0
C7C0
C600
C600
C600
C600
C600
C600
C600
C600
C600
C600
C600
C600
C600
C7C0
C3E0
E060
E060
F860
7FE0
7FE0
3FE0
0FC0
ENDCHAR
STARTCHAR 005C
ENCODING 92
SWIDTH 480 0
DWIDTH 12 0
BBX 14 28 -1 -7
BITMAP
3C00
7C00
E600
E600
6300
E300
F300
7180
7180
3980
38C0
38C0
1CE0
1C60
1E60
0E70
0E30
0F30
0718
0718
0798
038C
0398
01DC
01F8
01F8
00F8
0070
ENDCHAR
STARTCHAR 005D
ENCODING 93
SWIDTH 440 0
DWIDTH 11 0
BBX 11 31 0 -9
BITMAP
7E00
FF00
C380
C0C0
C0E0
FC60
FE60
FE60
7E60
0660
0660
0660
0660
0660
0660
0660
0660
0660
0660
0660
0660
0660
3E60
FC60
C0E0
C0E0
C3E0
FFC0
FF80
FF00
7E00
ENDCHAR
STARTCHAR 005E
ENCODING 94
SWIDTH 440 0
DWIDTH 11 0
BBX 12 11 0 8
BITMAP
0F00
1F80
39C0
70E0
E070
C030
C620
FFF0
FFF0
7FE0
3FC0
ENDCHAR
STARTCHAR 005F
ENCODING 95
SWIDTH 600 0
DWIDTH 15 0
BBX 16 9 0 -4
BITMAP
7FFE
FFFF
C003
C003
C003
FFFF
FFFF
7FFF
3FFE
ENDCHAR
STARTCHAR 0060
ENCODING 96
SWIDTH 320 0
DWIDTH 8 0
BBX 9 13 0 6
BITMAP
3C00
7E00
E700
C300
C300
C180
E180
E180
7380
7F80
7F80
3F00
1E00
ENDCHAR
STARTCHAR 0061
ENCODING 97
SWIDTH 600 0
DWIDTH 15 0
BBX 16 18 0 -4
BITMAP
07E0
1FF8
3C3C
700E
6006
E3C7
C7E3
C7E3
C7E3
C7E3
C3E3
E063
F063
7863
7FFF
3FFF
1FFF
07FE
ENDCHAR
STARTCHAR 0062
ENCODING 98
SWIDTH 600 0
DWIDTH 15 0
BBX 16 23 0 -4
BITMAP
3800
7E00
C600
C600
C600
C7E0
C7F8
C61C
C60E
C606
C783
C7E3
C7E3
C7E3
C7E3
E3C7
E007
F00F
783E
7FFE
3FFC
1FF8
07E0
ENDCHAR
STARTCHAR 0063
ENCODING 99
SWIDTH 400 0
DWIDTH 10 0
BBX 11 18 0 -4
BITMAP
07C0
1FE0
3860
7060
6060
C3E0
C7E0
C7E0
C7C0
C7C0
C3E0
E060
F060
7860
7FE0
3FE0
1FE0
07C0
ENDCHAR
STARTCHAR 0064
ENCODING 100
SWIDTH 600 0
DWIDTH 15 0
BBX 16 23 0 -4
BITMAP
001C
007E
0063
0063
0063
07E3
1FE3
3863
7063
6063
C3E3
C7E3
C7E3
C7E3
C7E3
C3C7
E007
F00F
783E
7FFE
3FFC
1FF8
07E0
ENDCHAR
STARTCHAR 0065
ENCODING 101
SWIDTH 560 0
DWIDTH 14 0
BBX 15 18 0 -4
BITMAP
07E0
1FF8
3C1C
700E
6006
E306
C60E
C61E
C63E
C7FC
C3F8
E00C
F00C
7C08
7FFC
3FFC
1FFC
07F0
ENDCHAR
STARTCHAR 0066
ENCODING 102
SWIDTH 520 0
DWIDTH 13 0
BBX 14 23 0 -4
BITMAP
0FC0
1FE0
3870
6018
E00C
C30C
C78C
C78C
C78C
C7FC
C7FC
C00C
C00C
C00C
C7FC
C7FC
C7FC
C7F8
C600
FE00
FE00
FE00
3800
ENDCHAR
STARTCHAR 0067
ENCODING 103
SWIDTH 600 0
DWIDTH 15 0
BBX 16 32 0 -18
BITMAP
07E0
1FF8
3C3C
700E
6006
E3C7
C7E3
C7E3
C7E3
C7E3
C3E3
E063
F063
F863
7FE3
3C03
3007
600F
E3FF
C7F6
C7E3
C7E3
C7C3
C3C3
E007
E007
F00F
7C3E
7FFE
3FFC
1FF8
07E0
ENDCHAR
STARTCHAR 0068
ENCODING 104
SWIDTH 520 0
DWIDTH 13 0
BBX 18 29 0 -10
BITMAP
380000
FC0000
C60000
C60000
C60000
C7C000
C7F000
C07800
C01800
C01C00
C30C00
C78C00
C78C00
C78C00
C78C00
C78C00
C78C00
C78C00
C78C00
FF8F00
FF8780
FF81C0
39C0C0
01E0C0
01F1C0
00FFC0
007FC0
003F80
000F00
ENDCHAR
STARTCHAR 0069
ENCODING 105
SWIDTH 240 0
DWIDTH 6 0
BBX 7 23 0 -4
BITMAP
78
FC
CC
C6
CE
FE
FE
CE
C6
C6
C6
C6
C6
C6
C6
C6
C6
C6
CE
FE
FE
FC
78
ENDCHAR
STARTCHAR 006A
ENCODING 106
SWIDTH 240 0
DWIDTH 6 0
BBX 11 29 -3 -10
BITMAP
0780
0FC0
1CE0
1860
0CE0
1FE0
1FE0
0CC0
0CC0
0CC0
0CC0
0CC0
0CC0
0CC0
0CC0
0CC0
0CC0
0CC0
0CC0
3CC0
78C0
E0C0
C1C0
C1C0
C7C0
FF80
FF00
7F00
3C00
ENDCHAR
STARTCHAR 006B
ENCODING 107
SWIDTH 520 0
DWIDTH 13 0
BBX 17 29 0 -10
BITMAP
380000
FC0000
C60000
C60000
C60000
C6F000
C7F800
C71800
C71800
C71800
C01800
C03800
C03800
C01800
C60C00
C78C00
C78C00
C78C00
C78C00
FF8F00
FF8780
FF8180
3DC180
01C180
01F180
00FF80
007F80
007F00
001E00
ENDCHAR
STARTCHAR 006C
ENCODING 108
SWIDTH 240 0
DWIDTH 6 0
BBX 7 23 0 -4
BITMAP
3C
FE
C6
C6
C6
C6
C6
C6
C6
C6
C6
C6
C6
C6
C6
C6
C6
C6
C6
FE
FE
FE
38
ENDCHAR
STARTCHAR 006D
ENCODING 109
SWIDTH 800 0
DWIDTH 20 0
BBX 25 24 0 -10
BITMAP
0FDF8000
1FFFC000
3820F000
60003000
E0003800
C30E1800
C78F1800
C78F1800
C78F1800
C78F1800
C78F1800
C78F1800
C78F1800
C78F1800
FFFF1E00
FFFF0F00
FFFF0380
38738180
0003C180
0003E380
0001FF80
0000FF80
00007F00
00001E00
ENDCHAR
STARTCHAR 006E
ENCODING 110
SWIDTH 520 0
DWIDTH 13 0
BBX 18 24 0 -10
BITMAP
0FC000
1FE000
387800
601800
E01C00
C30C00
C78C00
C78C00
C78C00
C78C00
C78C00
C78C00
C78C00
C78C00
FF8F00
FF8780
FF81C0
39C0C0
01E0C0
01F1C0
00FFC0
007FC0
003F80
000F00
ENDCHAR
STARTCHAR 006F
ENCODING 111
SWIDTH 600 0
DWIDTH 15 0
BBX 16 18 0 -4
BITMAP
07E0
1FF8
3C3C
700E
6006
E3C7
C7E3
C7E3
C7E3
C7E3
C3C7
E007
F00F
783E
7FFE
3FFC
1FF8
07E0
ENDCHAR
STARTCHAR 0070
ENCODING 112
SWIDTH 600 0
DWIDTH 15 0
BBX 16 24 0 -10
BITMAP
07E0
1FF8
3C3C
700E
6006
E3C7
C7E3
C7E3
C7E3
C7E3
C7C3
C607
C60F
C61E
C7FE
C7FC
C7F8
C7E0
C600
C600
FE00
FE00
7C00
3800
ENDCHAR
STARTCHAR 0071
ENCODING 113
SWIDTH 600 0
DWIDTH 15 0
BBX 16 24 0 -10
BITMAP
07E0
1FF8
3C3C
700E
6006
E3C7
C7E3
C7E3
C7E3
C7E3
C3E3
E063
F063
7863
7FE3
3FE3
1FE3
07E3
0063
0063
007F
007F
003E
001C
ENDCHAR
STARTCHAR 0072
ENCODING 114
SWIDTH 360 0
DWIDTH 9 0
BBX 10 18 0 -4
BITMAP
0F80
3FC0
78C0
60C0
E0C0
C3C0
C7C0
C7C0
C780
C600
C600
C600
C600
C600
FE00
FE00
FE00
3800
ENDCHAR
STARTCHAR 0073
ENCODING 115
SWIDTH 480 0
DWIDTH 12 0
BBX 13 18 0 -4
BITMAP
01E0
07F0
0E18
0C18
1818
1878
18F8
18F8
18F0
38C0
F0C0
C1C0
C1C0
C3C0
FF80
FF80
FF00
7C00
ENDCHAR
STARTCHAR 0074
ENCODING 116
SWIDTH 520 0
DWIDTH 13 0
BBX 14 21 0 -4
BITMAP
7800
FC00
C600
C7F8
C7FC
C00C
C00C
C00C
C7FC
C7FC
C78C
C78C
C78C
C30C
E01C
E01C
F87C
7FF8
3FF0
1FE0
0FC0
ENDCHAR
STARTCHAR 0075
ENCODING 117
SWIDTH 520 0
DWIDTH 13 0
BBX 14 18 0 -4
BITMAP
3870
FDF8
C78C
C78C
C78C
C78C
C78C
C78C
C78C
C78C
C30C
E01C
E01C
F87C
7FF8
7FF0
1FE0
0FC0
ENDCHAR
STARTCHAR 0076
ENCODING 118
SWIDTH 520 0
DWIDTH 13 0
BBX 14 18 0 -4
BITMAP
78F0
FDF8
CD9C
C71C
C718
E31C
E238
E238
7078
7070
7070
38F0
38E0
1DE0
1FC0
1FC0
0FC0
0780
ENDCHAR
STARTCHAR 0077
ENCODING 119
SWIDTH 800 0
DWIDTH 20 0
BBX 21 18 0 -4
BITMAP
7878E0
FDFFF0
C78F18
C78F18
C78F18
C78F18
C78F18
C78F18
C78F18
C78F18
C30E18
E00038
E00038
F820F8
7FFFF0
7FFFE0
1FFFC0
0FDF80
ENDCHAR
STARTCHAR 0078
ENCODING 120
SWIDTH 520 0
DWIDTH 13 0
BBX 14 18 0 -4
BITMAP
3C70
FFF8
C78C
C78C
C78C
C30C
C00C
E01C
6018
4008
C30C
C78C
C78C
C78C
FFFC
FFFC
FFFC
3870
ENDCHAR
STARTCHAR 0079
ENCODING 121
SWIDTH 520 0
DWIDTH 13 0
BBX 14 24 0 -10
BITMAP
3C70
FFF8
C78C
C78C
C78C
C78C
C78C
C78C
C78C
C78C
C30C
E00C
E00C
F80C
7F8C
7F8C
3C0C
0C1C
0C1C
0C7C
0FF8
0FF0
0FF0
07C0
ENDCHAR
STARTCHAR 007A
ENCODING 122
SWIDTH 520 0
DWIDTH 13 0
BBX 15 18 0 -4
BITMAP
3FF8
7FFC
6006
6004
600E
7E0E
7C1C
783C
3078
70F0
E1F8
C01C
C00C
C018
FFFC
FFFC
FFF8
7FF0
ENDCHAR
STARTCHAR 007B
ENCODING 123
SWIDTH 400 0
DWIDTH 10 0
BBX 11 31 0 -9
BITMAP
0FC0
3FE0
7860
6060
E060
C3E0
C7E0
C7E0
C7C0
C600
C600
C600
C600
C600
C600
C600
C600
C600
C600
C600
C600
C600
C7C0
C3E0
E060
E060
F860
7FE0
7FE0
3FE0
0FC0
ENDCHAR
STARTCHAR 007C
ENCODING 124
SWIDTH 240 0
DWIDTH 6 0
BBX 7 29 0 -7
BITMAP
38
7C
C6
C6
C6
C6
C6
C6
C6
C6
C6
C6
C6
C6
C6
C6
C6
C6
C6
C6
C6
C6
C6
C6
C6
FE
FE
7C
38
ENDCHAR
STARTCHAR 007D
ENCODING 125
SWIDTH 400 0
DWIDTH 10 0
BBX 11 31 0 -9
BITMAP
7E00
FF00
C380
C0C0
C0E0
FC60
FE60
FE60
7E60
0660
0660
0660
0660
0660
0660
0660
0660
0660
0660
0660
0660
0660
3E60
FC60
C0E0
C0E0
C3E0
FFC0
FF80
FF00
7E00
ENDCHAR
STARTCHAR 007E
ENCODING 126
SWIDTH 440 0
DWIDTH 11 0
BBX 12 10 0 9
BITMAP
3FC0
7FE0
E070
C030
C030
EC70
FFF0
FFF0
7FE0
3BC0
ENDCHAR
STARTCHAR 00A1
ENCODING 161
SWIDTH 240 0
DWIDTH 6 0
BBX 7 23 -1 -4
BITMAP
3C
7E
E6
C6
E6
FE
FE
E6
C6
C6
C6
C6
C6
C6
C6
C6
C6
C6
E6
FE
FE
7E
3C
ENDCHAR
STARTCHAR 00A2
ENCODING 162
SWIDTH 360 0
DWIDTH 9 0
BBX 11 23 0 -4
BITMAP
0E00
1F00
1980
19C0
3EE0
7060
60E0
C3E0
C7E0
C7C0
C780
C780
C3C0
E0E0
F060
F8E0
7FE0
79E0
39C0
1FC0
1F80
1F00
0E00
ENDCHAR
STARTCHAR 00A3
ENCODING 163
SWIDTH 600 0
DWIDTH 15 0
BBX 17 23 0 -4
BITMAP
0F8000
3FC000
70E000
606000
C0E000
C7E000
C7E000
C07000
C03000
C03E00
C07F00
C7F380
C7F180
C7F180
C7F180
C7E380
C00380
C00780
C00F00
FFFF00
FFFE00
FFFC00
7FF000
ENDCHAR
STARTCHAR 00A4
ENCODING 164
SWIDTH 600 0
DWIDTH 15 0
BBX 16 23 0 -4
BITMAP
007C
03FE
0786
0E07
7C3E
F87F
C00E
C006
C00C
F1FC
F1FE
C00C
C006
C00C
F87C
F83E
FC06
7E03
1F86
0FFF
07FE
01FE
007C
ENDCHAR
STARTCHAR 00A5
ENCODING 165
SWIDTH 600 0
DWIDTH 15 0
BBX 15 26 0 -4
BITMAP
3C78
7EFC
67CE
63C6
63C6
63C6
63C6
63C6
63C6
638E
600E
F01E
C006
C006
C00E
FC7E
C00E
C006
C00E
FC7E
FC7E
FCFC
7FF8
0FC0
0FC0
0780
ENDCHAR
STARTCHAR 00A7
ENCODING 167
SWIDTH 680 0
DWIDTH 17 0
BBX 18 23 0 -4
BITMAP
00F000
03F800
078C00
060F00
0C1F80
0CF1C0
0CC0C0
0C81C0
0C8FC0
0C8FC0
0C8F80
3C8F00
F98C00
C18C00
C38C00
C71C00
FC1C00
FC3C00
FC7800
7FF800
0FF000
0FE000
07C000
ENDCHAR
STARTCHAR 00A8
ENCODING 168
SWIDTH 440 0
DWIDTH 11 0
BBX 13 9 -1 19
BITMAP
3FE0
7FF0
6638
6218
E638
7FF8
7FF8
7FF0
3DE0
ENDCHAR
STARTCHAR 00A9
ENCODING 169
SWIDTH 800 0
DWIDTH 20 0
BBX 21 23 0 -4
BITMAP
01FC00
07FF00
1E0780
3801C0
7000E0
60F870
E3FC30
C39E30
C67E38
C6FF18
C6FF18
C6FF18
C6FE38
C3FE38
E3FC38
E0F870
F000F0
7801F0
7E07E0
3FFFC0
1FFF80
07FF00
01FC00
ENDCHAR
STARTCHAR 00AA
ENCODING 170
SWIDTH 1120 0
DWIDTH 28 0
BBX 28 25 1 1
BITMAP
003C0000
007FE000
00FFF000
01FFF800
01FFFC00
03F0FE00
03E07F00
03E03F00
07C01F00
1FC00F80
7FC00F80
7FF8F780
0FC00780
1FBCE790
7F18C7F0
7E0007F0
7F0007E0
3F0007E0
FF070FE0
3F8F1F80
3FCF3F80
1FE77F00
0FB8FE00
001F8800
000F0000
ENDCHAR
STARTCHAR 00AB
ENCODING 171
SWIDTH 560 0
DWIDTH 14 0
BBX 14 14 0 -2
BITMAP
0E70
1FF8
339C
610C
E10C
C21C
C21C
E10C
E10C
F39C
7FFC
3FFC
3FF8
0E70
ENDCHAR
STARTCHAR 00AC
ENCODING 172
SWIDTH 1360 0
DWIDTH 34 0
BBX 34 25 0 0
BITMAP
000FC00000
001FFC0000
003FFF0000
007FFF8000
007FFFC000
00FE0FE000
00FC07F000
01F803F800
03F801F800
07F000FC00
7FF0007C00
7FF73C7C00
07F0007C00
0FEF3C3C80
3FCDBC7FC0
7F05D87FC0
7F83387F80
1F80007F00
FFC0007F00
3FE1E0FE00
3FF121FC00
1F18E3F000
000C0FE000
0007F80000
0001E00000
ENDCHAR
STARTCHAR 00AE
ENCODING 174
SWIDTH 800 0
DWIDTH 20 0
BBX 21 23 0 -4
BITMAP
01FC00
07FF00
1E0780
3801C0
7000E0
60F870
E3FC30
C30E30
C66638
C67318
C67718
C66F18
C65E38
C24638
E3FC38
E0F870
F000F0
7801F0
7E07E0
3FFFC0
1FFF80
07FF00
01FC00
ENDCHAR
STARTCHAR 00AF
ENCODING 175
SWIDTH 560 0
DWIDTH 14 0
BBX 12 9 1 14
BITMAP
3FE0
7FF0
6030
C030
6030
FFF0
7FF0
7FF0
3FE0
ENDCHAR
STARTCHAR 00B0
ENCODING 176
SWIDTH 280 0
DWIDTH 7 0
BBX 10 11 0 9
BITMAP
3C00
7E00
E700
C300
CF00
CFC0
E700
FF00
FF00
7E00
3C00
ENDCHAR
STARTCHAR 00B1
ENCODING 177
SWIDTH 480 0
DWIDTH 12 0
BBX 13 19 0 -4
BITMAP
0F00
1F80
18C0
78E0
C030
C018
C018
C038
F8F8
F8F8
F9F0
FFF0
C038
C018
C038
FFF8
FFF8
FFF0
7FE0
ENDCHAR
STARTCHAR 00B4
ENCODING 180
SWIDTH 320 0
DWIDTH 8 0
BBX 9 13 0 18
BITMAP
1E00
3F00
6300
6180
C100
C300
C380
C700
C700
FF00
FE00
FE00
7800
ENDCHAR
STARTCHAR 00B5
ENCODING 181
SWIDTH 720 0
DWIDTH 18 0
BBX 19 24 0 -10
BITMAP
78F000
FDF800
CF9C00
C78C00
C78C00
C78C00
C78C00
C78C00
C78C00
C78F80
C70FC0
C000E0
C00060
C060C0
C7FFE0
C7FFE0
C7FFC0
C7CF80
C60000
CE0000
FE0000
FE0000
FC0000
780000
ENDCHAR
STARTCHAR 00B6
ENCODING 182
SWIDTH 720 0
DWIDTH 18 0
BBX 19 23 0 -4
BITMAP
07FF80
1FFFC0
3800E0
700060
E00060
C30C60
C70C60
C70C60
C70C60
C70C60
C30C60
E00C60
F00C60
F80C60
7F0C60
3F0C60
1F0C60
070C60
031CE0
03FFE0
03FFE0
01F7C0
00E380
ENDCHAR
STARTCHAR 00B7
ENCODING 183
SWIDTH 240 0
DWIDTH 6 0
BBX 7 10 0 -4
BITMAP
38
7C
EE
C6
C6
EE
FE
FE
7C
38
ENDCHAR
STARTCHAR 00B8
ENCODING 184
SWIDTH 440 0
DWIDTH 11 0
BBX 8 8 1 -8
BITMAP
07
07
07
0F
7F
FE
FE
78
ENDCHAR
STARTCHAR 00BA
ENCODING 186
SWIDTH 1120 0
DWIDTH 28 0
BBX 28 25 1 1
BITMAP
003C0000
007FE000
00FFF000
01FFF800
01FFFC00
03F0FE00
03E07F00
03E03F00
07C01F00
1FC00F80
7FC00F80
7FF8F780
0FC00780
1FBCE790
7F18C7F0
7E0007F0
7F0007E0
3F0007E0
FF070FE0
3F8F1F80
3FCF3F80
1FE77F00
0FB8FE00
001F8800
000F0000
ENDCHAR
STARTCHAR 00BB
ENCODING 187
SWIDTH 560 0
DWIDTH 14 0
BBX 15 14 0 -2
BITMAP
79C0
FFF0
C638
C21C
C20C
E106
E104
C20C
C21E
C63C
FFFC
FFF8
FFF0
79C0
ENDCHAR
STARTCHAR 00BF
ENCODING 191
SWIDTH 600 0
DWIDTH 15 0
BBX 16 23 0 -4
BITMAP
01E0
03F0
0338
0318
0338
0FF8
1838
3018
6018
C038
C3FE
C7E7
C7E3
C7E3
C7C7
C387
E007
F00E
F83E
7FFC
3FFC
1FF0
07E0
ENDCHAR
STARTCHAR 00C0
ENCODING 192
SWIDTH 640 0
DWIDTH 16 0
BBX 20 40 0 -10
BITMAP
078000
0FC000
1CE000
186000
186000
183000
1C3000
1C3000
0E7000
0FF000
0FF000
07E000
1FF800
3C3C00
700E00
600600
E3C700
C7E300
C7E300
C7E300
C7E300
C7C300
C60300
C60300
C60300
C7E300
C7E300
C7E300
C7E300
C66300
FE63C0
FE61E0
FE6070
387030
007830
007C70
003FF0
001FF0
000FE0
0003C0
ENDCHAR
STARTCHAR 00C1
ENCODING 193
SWIDTH 600 0
DWIDTH 15 0
BBX 20 41 0 -10
BITMAP
01E000
03F000
073800
061800
061800
0C1800
0C3800
0C3800
0E7000
0FF000
0FF000
07E000
07E000
1FF800
3C3C00
700E00
600600
E3C700
C7E300
C7E300
C7E300
C7E300
C7C300
C60300
C60300
C60300
C7E300
C7E300
C7E300
C7E300
C66300
FE63C0
FE61E0
FE6070
387030
007830
007C70
003FF0
001FF0
000FE0
0003C0
ENDCHAR
STARTCHAR 00C2
ENCODING 194
SWIDTH 640 0
DWIDTH 16 0
BBX 20 39 0 -10
BITMAP
01E000
03F000
073800
0E1C00
1C0E00
180600
18C400
1FFE00
1FFE00
0FFC00
07F800
1FF800
3C3C00
700E00
600600
E3C700
C7E300
C7E300
C7E300
C7E300
C7C300
C60300
C60300
C60300
C7E300
C7E300
C7E300
C7E300
C66300
FE63C0
FE61E0
FE6070
387030
007830
007C70
003FF0
001FF0
000FE0
0003C0
ENDCHAR
STARTCHAR 00C3
ENCODING 195
SWIDTH 560 0
DWIDTH 14 0
BBX 20 38 0 -10
BITMAP
0FF000
1FF800
381C00
300C00
300C00
3B1C00
3FFC00
3FFC00
1FF800
0FF000
1FF800
3C3C00
700E00
600600
E3C700
C7E300
C7E300
C7E300
C7E300
C7C300
C60300
C60300
C60300
C7E300
C7E300
C7E300
C7E300
C66300
FE63C0
FE61E0
FE6070
387030
007830
007C70
003FF0
001FF0
000FE0
0003C0
ENDCHAR
STARTCHAR 00C4
ENCODING 196
SWIDTH 560 0
DWIDTH 14 0
BBX 20 40 0 -10
BITMAP
0FF000
1FF800
319C00
310C00
719C00
3FFC00
3FFC00
1FF800
0E7000
000000
000000
07E000
1FF800
3C3C00
700E00
600600
E3C700
C7E300
C7E300
C7E300
C7E300
C7C300
C60300
C60300
C60300
C7E300
C7E300
C7E300
C7E300
C66300
FE63C0
FE61E0
FE6070
387030
007830
007C70
003FF0
001FF0
000FE0
0003C0
ENDCHAR
STARTCHAR 00C5
ENCODING 197
SWIDTH 560 0
DWIDTH 14 0
BBX 20 36 0 -10
BITMAP
03C000
07E000
0E7000
0C3000
0CF000
0CFC00
0E7000
0FF000
1FF800
3FFC00
73CE00
600600
E3C700
C7E300
C7E300
C7E300
C7E300
C7C300
C60300
C60300
C60300
C7E300
C7E300
C7E300
C7E300
C66300
FE63C0
FE61E0
FE6070
387030
007830
007C70
003FF0
001FF0
000FE0
0003C0
ENDCHAR
STARTCHAR 00C6
ENCODING 198
SWIDTH 880 0
DWIDTH 22 0
BBX 23 23 0 -4
BITMAP
07E0F8
1FFBFC
383F0E
700C06
E00006
C3803E
C7C0FE
C7E1FC
C7E1FC
C7C00E
C7C006
C6000E
C603FE
C621FE
C7E0FC
C7E07C
C7E00E
C7E006
CE630E
FE7FFE
FE7FFE
FC7FFC
787FF8
ENDCHAR
STARTCHAR 00C7
ENCODING 199
SWIDTH 480 0
DWIDTH 12 0
BBX 14 28 0 -9
BITMAP
01F0
07F8
1E1C
380C
3018
60FC
E3FC
C3F8
C7F0
C780
C600
C600
C600
C300
E3E0
E0F8
F01C
780C
7E1C
3FFC
1C7C
0C38
0C38
0C60
0FE0
0FE0
0FC0
0780
ENDCHAR
STARTCHAR 00C8
ENCODING 200
SWIDTH 480 0
DWIDTH 12 0
BBX 14 34 0 -4
BITMAP
0780
0FC0
1CE0
1860
1860
1830
1C30
1C30
0E70
0FF0
0FF0
07F0
07F8
0F0C
1C0C
300C
70FC
61FC
C3F8
C7F8
C00C
C00C
C00C
C7FC
C3FC
E1F8
F0F8
700C
780C
3E0C
1FFC
0FFC
07FC
01F8
ENDCHAR
STARTCHAR 00C9
ENCODING 201
SWIDTH 480 0
DWIDTH 12 0
BBX 14 35 0 -4
BITMAP
03C0
07E0
0E70
0C30
0C30
1830
1870
1870
1CE0
1FE0
1FE0
0FC0
07F0
07F8
0F0C
1C0C
300C
70FC
61FC
C3F8
C7F8
C00C
C00C
C00C
C7FC
C3FC
E1F8
F0F8
700C
780C
3E0C
1FFC
0FFC
07FC
01F8
ENDCHAR
STARTCHAR 00CA
ENCODING 202
SWIDTH 520 0
DWIDTH 13 0
BBX 14 34 0 -4
BITMAP
03C0
07E0
0E70
1C38
381C
300C
3188
3FFC
3FFC
1FF8
0FF0
01F0
07F8
0F0C
1C0C
300C
70FC
61FC
C3F8
C7F8
C00C
C00C
C00C
C7FC
C3FC
E1F8
F0F8
700C
780C
3E0C
1FFC
0FFC
07FC
01F8
ENDCHAR
STARTCHAR 00CB
ENCODING 203
SWIDTH 480 0
DWIDTH 12 0
BBX 14 34 0 -4
BITMAP
0FF0
1FF8
319C
310C
719C
3FFC
3FFC
1FF8
0E70
0000
0000
01F0
07F8
0F0C
1C0C
300C
70FC
61FC
C3F8
C7F8
C00C
C00C
C00C
C7FC
C3FC
E1F8
F0F8
700C
780C
3E0C
1FFC
0FFC
07FC
01F8
ENDCHAR
STARTCHAR 00CC
ENCODING 204
SWIDTH 200 0
DWIDTH 5 0
BBX 9 34 -1 -4
BITMAP
3C00
7E00
E700
C300
C300
C180
E180
E180
7380
7F80
7F80
3F00
7E00
6300
6300
6300
6300
6300
6300
6300
6300
6300
6300
6300
6300
6300
6300
6300
6300
6300
7F00
7F00
7F00
1C00
ENDCHAR
STARTCHAR 00CD
ENCODING 205
SWIDTH 200 0
DWIDTH 5 0
BBX 9 35 0 -4
BITMAP
1E00
3F00
7380
6180
6180
C180
C380
C380
E700
FF00
FF00
7E00
3C00
FC00
C600
C600
C600
C600
C600
C600
C600
C600
C600
C600
C600
C600
C600
C600
C600
C600
C600
FE00
FE00
FE00
3800
ENDCHAR
STARTCHAR 00CE
ENCODING 206
SWIDTH 200 0
DWIDTH 5 0
BBX 12 33 -2 -4
BITMAP
0F00
1F80
39C0
70E0
E070
C030
C620
FFF0
FFF0
7FE0
3FC0
3F00
3180
3180
3180
3180
3180
3180
3180
3180
3180
3180
3180
3180
3180
3180
3180
3180
3180
3F80
3F80
3F80
0E00
ENDCHAR
STARTCHAR 00CF
ENCODING 207
SWIDTH 200 0
DWIDTH 5 0
BBX 13 34 -4 -4
BITMAP
1FE0
3FF0
6338
6218
E338
7FF8
7FF8
3FF0
1CE0
0000
0000
0380
0FC0
0C60
0C60
0C60
0C60
0C60
0C60
0C60
0C60
0C60
0C60
0C60
0C60
0C60
0C60
0C60
0C60
0C60
0FE0
0FE0
0FE0
0380
ENDCHAR
STARTCHAR 00D0
ENCODING 208
SWIDTH 1120 0
DWIDTH 28 0
BBX 28 25 1 1
BITMAP
003C0000
007FE000
00FFF000
01FFF800
01FFFC00
03F0FE00
03E07F00
03E03F00
07C01F00
1FC00F80
7FC00F80
7FF8F780
0FC00780
1FBCE790
7F18C7F0
7E0007F0
7F0007E0
3F0007E0
FF070FE0
3F8F1F80
3FCF3F80
1FE77F00
0FB8FE00
001F8800
000F0000
ENDCHAR
STARTCHAR 00D1
ENCODING 209
SWIDTH 480 0
DWIDTH 12 0
BBX 18 35 0 -10
BITMAP
1FE000
3FF000
703800
601800
601800
763800
7FF800
7FF800
3FF800
7DF800
E01C00
C30C00
C78C00
C78C00
C78C00
C78C00
C78C00
C78C00
C78C00
C78C00
C78C00
C78C00
C78C00
C78C00
C78C00
FF8F00
FF8780
FF81C0
39C0C0
01E0C0
01F1C0
00FFC0
007FC0
003F80
000F00
ENDCHAR
STARTCHAR 00D2
ENCODING 210
SWIDTH 760 0
DWIDTH 19 0
BBX 21 35 0 -4
BITMAP
00F000
01F800
039C00
030C00
030C00
030600
038600
038600
01CE00
01FE00
01FE00
00FC00
01FC00
07FF00
0F0780
1C01C0
300060
70F870
61FC30
E3FE38
C7FF18
C78718
C60318
C60318
C60318
C38638
E1FC38
F0F878
700070
7C01F0
3F07E0
3FFFC0
0FFF80
07FF00
01FC00
ENDCHAR
STARTCHAR 00D3
ENCODING 211
SWIDTH 760 0
DWIDTH 19 0
BBX 21 35 0 -4
BITMAP
001E00
003F00
007380
006180
006180
00C180
00C380
00C380
00E700
00FF00
00FF00
007E00
01FC00
07FF00
0F0780
1C01C0
300060
70F870
61FC30
E3FE38
C7FF18
C78718
C60318
C60318
C60318
C38638
E1FC38
F0F878
700070
7C01F0
3F07E0
3FFFC0
0FFF80
07FF00
01FC00
ENDCHAR
STARTCHAR 00D4
ENCODING 212
SWIDTH 760 0
DWIDTH 19 0
BBX 21 34 0 -4
BITMAP
007800
00FC00
01CE00
038700
070380
060180
063100
07FF80
07FF80
03FF00
01FE00
01FC00
07FF00
0F0780
1C01C0
300060
70F870
61FC30
E3FE38
C7FF18
C78718
C60318
C60318
C60318
C38638
E1FC38
F0F878
700070
7C01F0
3F07E0
3FFFC0
0FFF80
07FF00
01FC00
ENDCHAR
STARTCHAR 00D5
ENCODING 213
SWIDTH 760 0
DWIDTH 19 0
BBX 21 32 0 -4
BITMAP
01FE00
03FF00
070380
060180
060180
076380
07FF80
07FF80
03FF00
01FE00
07FF00
0F0780
1C01C0
300060
70F870
61FC30
E3FE38
C7FF18
C78718
C60318
C60318
C60318
C38638
E1FC38
F0F878
700070
7C01F0
3F07E0
3FFFC0
0FFF80
07FF00
01FC00
ENDCHAR
STARTCHAR 00D6
ENCODING 214
SWIDTH 760 0
DWIDTH 19 0
BBX 21 34 0 -4
BITMAP
01FE00
03FF00
063380
062180
0E3380
07FF80
07FF80
03FF00
01CE00
000000
000000
01FC00
07FF00
0F0780
1C01C0
300060
70F870
61FC30
E3FE38
C7FF18
C78718
C60318
C60318
C60318
C38638
E1FC38
F0F878
700070
7C01F0
3F07E0
3FFFC0
0FFF80
07FF00
01FC00
ENDCHAR
STARTCHAR 00D8
ENCODING 216
SWIDTH 800 0
DWIDTH 20 0
BBX 21 23 0 -4
BITMAP
01FC00
07FF00
0F0780
1C01C0
300060
70F870
61FC30
E3FE38
C7FF18
C78718
C60318
C60318
C60318
C38638
E1FC38
F0F878
700070
7C01F0
3F07E0
3FFFC0
0FFF80
07FF00
01FC00
ENDCHAR
STARTCHAR 00D9
ENCODING 217
SWIDTH 480 0
DWIDTH 12 0
BBX 14 34 0 -4
BITMAP
0780
0FC0
1CE0
1860
1860
1830
1C30
1C30
0E70
0FF0
0FF0
3FF0
FFF8
C78C
C78C
C78C
C78C
C78C
C78C
C78C
C78C
C78C
C78C
C78C
C78C
C78C
C30C
E01C
E01C
F87C
7FF8
7FF0
1FE0
0FC0
ENDCHAR
STARTCHAR 00DA
ENCODING 218
SWIDTH 480 0
DWIDTH 12 0
BBX 14 35 0 -4
BITMAP
01E0
03F0
0738
0618
0618
0C18
0C38
0C38
0E70
0FF0
0FF0
07E0
3BF0
FCF8
C78C
C78C
C78C
C78C
C78C
C78C
C78C
C78C
C78C
C78C
C78C
C78C
C78C
C30C
E01C
E01C
F87C
7FF8
7FF0
1FE0
0FC0
ENDCHAR
STARTCHAR 00DB
ENCODING 219
SWIDTH 480 0
DWIDTH 12 0
BBX 14 33 0 -4
BITMAP
0780
0FC0
1CE0
3870
7038
6018
6310
7FF8
7FF8
3FF0
3FF0
FCF8
C78C
C78C
C78C
C78C
C78C
C78C
C78C
C78C
C78C
C78C
C78C
C78C
C78C
C30C
E01C
E01C
F87C
7FF8
7FF0
1FE0
0FC0
ENDCHAR
STARTCHAR 00DC
ENCODING 220
SWIDTH 480 0
DWIDTH 12 0
BBX 14 34 0 -4
BITMAP
1FE0
3FF0
6338
6218
E338
7FF8
7FF8
3FF0
1CE0
0000
0000
3870
FCF8
C78C
C78C
C78C
C78C
C78C
C78C
C78C
C78C
C78C
C78C
C78C
C78C
C78C
C30C
E01C
E01C
F87C
7FF8
7FF0
1FE0
0FC0
ENDCHAR
STARTCHAR 00DD
ENCODING 221
SWIDTH 480 0
DWIDTH 12 0
BBX 11 26 1 0
BITMAP
0300
0780
0780
0F80
0F00
0F00
0E00
0000
0000
E0E0
E0E0
E0E0
E0E0
E0E0
F0E0
7FE0
7FE0
3FE0
0FE0
60E0
E0E0
F0E0
7FE0
7FE0
3FC0
1F00
ENDCHAR
STARTCHAR 00DE
ENCODING 222
SWIDTH 1120 0
DWIDTH 28 0
BBX 28 25 1 1
BITMAP
003C0000
007FE000
00FFF000
01FFF800
01FFFC00
03F0FE00
03E07F00
03E03F00
07C01F00
1FC00F80
7FC00F80
7FF8F780
0FC00780
1FBCE790
7F18C7F0
7E0007F0
7F0007E0
3F0007E0
FF070FE0
3F8F1F80
3FCF3F80
1FE77F00
0FB8FE00
001F8800
000F0000
ENDCHAR
STARTCHAR 00DF
ENCODING 223
SWIDTH 520 0
DWIDTH 13 0
BBX 14 28 0 -9
BITMAP
0F80
3FE0
7870
6038
C018
C71C
C78C
C70C
C60C
C81C
C818
C418
C708
C78C
C78C
C61C
C81C
C83C
C878
C7F8
C7F0
C7E0
C7C0
CE00
FE00
FE00
FC00
7800
ENDCHAR
STARTCHAR 00E0
ENCODING 224
SWIDTH 560 0
DWIDTH 14 0
BBX 16 30 0 -4
BITMAP
0780
0FC0
1CE0
1860
1860
1830
1C30
1C30
0E70
0FF0
0FF0
07E0
07E0
1FF8
3C3C
700E
6006
E3C7
C7E3
C7E3
C7E3
C7E3
C3E3
E063
F063
7863
7FFF
3FFF
1FFF
07FE
ENDCHAR
STARTCHAR 00E1
ENCODING 225
SWIDTH 560 0
DWIDTH 14 0
BBX 16 33 0 -4
BITMAP
01E0
03F0
0738
0618
0618
0C18
0C38
0C38
0E70
0FF0
0FF0
07E0
03C0
0000
0000
07E0
1FF8
3C3C
700E
6006
E3C7
C7E3
C7E3
C7E3
C7E3
C3E3
E063
F063
7863
7FFF
3FFF
1FFF
07FE
ENDCHAR
STARTCHAR 00E2
ENCODING 226
SWIDTH 560 0
DWIDTH 14 0
BBX 16 28 0 -4
BITMAP
01E0
03F0
0738
0E1C
1C0E
1806
18C4
1FFE
1FFE
0FFC
07F8
1FF8
3C3C
700E
6006
E3C7
C7E3
C7E3
C7E3
C7E3
C3E3
E063
F063
7863
7FFF
3FFF
1FFF
07FE
ENDCHAR
STARTCHAR 00E3
ENCODING 227
SWIDTH 560 0
DWIDTH 14 0
BBX 16 27 0 -4
BITMAP
0FF0
1FF8
381C
300C
300C
3B1C
3FFC
3FFC
1FF8
0FF0
1FF8
3C3C
700E
6006
E3C7
C7E3
C7E3
C7E3
C7E3
C3E3
E063
F063
7863
7FFF
3FFF
1FFF
07FE
ENDCHAR
STARTCHAR 00E4
ENCODING 228
SWIDTH 560 0
DWIDTH 14 0
BBX 16 29 0 -4
BITMAP
0FF0
1FF8
319C
310C
719C
3FFC
3FFC
1FF8
0E70
0000
0000
07E0
1FF8
3C3C
700E
6006
E3C7
C7E3
C7E3
C7E3
C7E3
C3E3
E063
F063
7863
7FFF
3FFF
1FFF
07FE
ENDCHAR
STARTCHAR 00E5
ENCODING 229
SWIDTH 560 0
DWIDTH 14 0
BBX 16 29 0 -4
BITMAP
03C0
07E0
0E70
0C30
0CF0
0CFC
0E70
0FF0
0FF0
07E0
03C0
07E0
1FF8
3C3C
700E
6006
E3C7
C7E3
C7E3
C7E3
C7E3
C3E3
E063
F063
7863
7FFF
3FFF
1FFF
07FE
ENDCHAR
STARTCHAR 00E6
ENCODING 230
SWIDTH 920 0
DWIDTH 23 0
BBX 24 18 0 -4
BITMAP
07E3F0
1FFFFC
38181E
700007
E00003
C38187
C7C30F
C7E31F
C7E33E
C7E3FE
C3E1FC
E0700E
F07806
F87C0C
7FFFFE
3FFFFE
1FEFFC
07C3F8
ENDCHAR
STARTCHAR 00E7
ENCODING 231
SWIDTH 360 0
DWIDTH 9 0
BBX 11 23 0 -9
BITMAP
0780
1FC0
38E0
7060
E0E0
C3E0
C7E0
C7C0
C780
C780
C3C0
E0E0
F060
F8E0
7FE0
38E0
18C0
18C0
18C0
1FC0
1FC0
1F80
0F00
ENDCHAR
STARTCHAR 00E8
ENCODING 232
SWIDTH 520 0
DWIDTH 13 0
BBX 15 29 0 -4
BITMAP
0780
0FC0
1CE0
1860
1860
1830
1C30
1C30
0E70
0FF0
0FF0
07E0
1FF8
3C1C
700E
6006
E306
C60E
C61E
C63E
C7FC
C3F8
E00C
F00C
7C08
7FFC
3FFC
1FFC
07F0
ENDCHAR
STARTCHAR 00E9
ENCODING 233
SWIDTH 520 0
DWIDTH 13 0
BBX 15 30 0 -4
BITMAP
01E0
03F0
0738
0618
0618
0C18
0C38
0C38
0E70
0FF0
0FF0
07E0
07E0
1FF8
3C1C
700E
6006
E306
C60E
C61E
C63E
C7FC
C3F8
E00C
F00C
7C08
7FFC
3FFC
1FFC
07F0
ENDCHAR
STARTCHAR 00EA
ENCODING 234
SWIDTH 520 0
DWIDTH 13 0
BBX 15 28 0 -4
BITMAP
03C0
07E0
0E70
1C38
381C
300C
3188
3FFC
3FFC
1FF8
0FF0
1FF8
3C1C
700E
6006
E306
C60E
C61E
C63E
C7FC
C3F8
E00C
F00C
7C08
7FFC
3FFC
1FFC
07F0
ENDCHAR
STARTCHAR 00EB
ENCODING 235
SWIDTH 520 0
DWIDTH 13 0
BBX 15 29 0 -4
BITMAP
0FF0
1FF8
319C
310C
719C
3FFC
3FFC
1FF8
0E70
0000
0000
07E0
1FF8
3C1C
700E
6006
E306
C60E
C61E
C63E
C7FC
C3F8
E00C
F00C
7C08
7FFC
3FFC
1FFC
07F0
ENDCHAR
STARTCHAR 00EC
ENCODING 236
SWIDTH 200 0
DWIDTH 5 0
BBX 9 30 -2 -4
BITMAP
3C00
7E00
E700
C300
C300
C180
E180
E180
7380
7F80
7F80
3F00
1F00
3F80
3180
3180
3180
3180
3180
3180
3180
3180
3180
3180
3180
3180
3F80
3F80
3F80
0E00
ENDCHAR
STARTCHAR 00ED
ENCODING 237
SWIDTH 200 0
DWIDTH 5 0
BBX 9 30 0 -4
BITMAP
1E00
3F00
7380
6180
6180
C180
C380
C380
E700
FF00
FF00
7E00
3C00
FE00
C600
C600
C600
C600
C600
C600
C600
C600
C600
C600
C600
C600
FE00
FE00
FE00
3800
ENDCHAR
STARTCHAR 00EE
ENCODING 238
SWIDTH 200 0
DWIDTH 5 0
BBX 12 28 -2 -4
BITMAP
0F00
1F80
39C0
70E0
E070
C030
C620
FFF0
FFF0
7FE0
3FC0
3F80
3180
3180
3180
3180
3180
3180
3180
3180
3180
3180
3180
3180
3F80
3F80
3F80
0E00
ENDCHAR
STARTCHAR 00EF
ENCODING 239
SWIDTH 200 0
DWIDTH 5 0
BBX 13 29 -4 -4
BITMAP
1FE0
3FF0
6338
6218
E338
7FF8
7FF8
3FF0
1CE0
0000
0000
03C0
0FE0
0C60
0C60
0C60
0C60
0C60
0C60
0C60
0C60
0C60
0C60
0C60
0C60
0FE0
0FE0
0FE0
0380
ENDCHAR
STARTCHAR 00F0
ENCODING 240
SWIDTH 1120 0
DWIDTH 28 0
BBX 28 25 1 1
BITMAP
003C0000
007FE000
00FFF000
01FFF800
01FFFC00
03F0FE00
03E07F00
03E03F00
07C01F00
1FC00F80
7FC00F80
7FF8F780
0FC00780
1FBCE790
7F18C7F0
7E0007F0
7F0007E0
3F0007E0
FF070FE0
3F8F1F80
3FCF3F80
1FE77F00
0FB8FE00
001F8800
000F0000
ENDCHAR
STARTCHAR 00F1
ENCODING 241
SWIDTH 480 0
DWIDTH 12 0
BBX 18 33 0 -10
BITMAP
1FE000
3FF000
703800
601800
601800
763800
7FF800
7FF800
3FF000
1FE000
1FE000
387800
601800
E01C00
C30C00
C78C00
C78C00
C78C00
C78C00
C78C00
C78C00
C78C00
C78C00
FF8F00
FF8780
FF81C0
39C0C0
01E0C0
01F1C0
00FFC0
007FC0
003F80
000F00
ENDCHAR
STARTCHAR 00F2
ENCODING 242
SWIDTH 560 0
DWIDTH 14 0
BBX 16 30 0 -4
BITMAP
0780
0FC0
1CE0
1860
1860
1830
1C30
1C30
0E70
0FF0
0FF0
07E0
07E0
1FF8
3C3C
700E
6006
E3C7
C7E3
C7E3
C7E3
C7E3
C3C7
E007
F00F
783E
7FFE
3FFC
1FF8
07E0
ENDCHAR
STARTCHAR 00F3
ENCODING 243
SWIDTH 560 0
DWIDTH 14 0
BBX 16 30 0 -4
BITMAP
01E0
03F0
0738
0618
0618
0C18
0C38
0C38
0E70
0FF0
0FF0
07E0
07E0
1FF8
3C3C
700E
6006
E3C7
C7E3
C7E3
C7E3
C7E3
C3C7
E007
F00F
783E
7FFE
3FFC
1FF8
07E0
ENDCHAR
STARTCHAR 00F4
ENCODING 244
SWIDTH 560 0
DWIDTH 14 0
BBX 16 28 0 -4
BITMAP
03C0
07E0
0E70
1C38
381C
300C
3188
3FFC
3FFC
1FF8
0FF0
1FF8
3C3C
700E
6006
E3C7
C7E3
C7E3
C7E3
C7E3
C3C7
E007
F00F
783E
7FFE
3FFC
1FF8
07E0
ENDCHAR
STARTCHAR 00F5
ENCODING 245
SWIDTH 560 0
DWIDTH 14 0
BBX 16 27 0 -4
BITMAP
07F8
0FFC
1C0E
1806
1806
1D8E
1FFE
1FFE
0FFC
07F8
1FF8
3C3C
700E
6006
E3C7
C7E3
C7E3
C7E3
C7E3
C3C7
E007
F00F
783E
7FFE
3FFC
1FF8
07E0
ENDCHAR
STARTCHAR 00F6
ENCODING 246
SWIDTH 560 0
DWIDTH 14 0
BBX 16 29 0 -4
BITMAP
0FF0
1FF8
319C
310C
719C
3FFC
3FFC
1FF8
0E70
0000
0000
07E0
1FF8
3C3C
700E
6006
E3C7
C7E3
C7E3
C7E3
C7E3
C3C7
E007
F00F
783E
7FFE
3FFC
1FF8
07E0
ENDCHAR
STARTCHAR 00F7
ENCODING 247
SWIDTH 1120 0
DWIDTH 28 0
BBX 28 25 1 1
BITMAP
003C0000
007FE000
00FFF000
01FFF800
01FFFC00
03F0FE00
03E07F00
03E03F00
07C01F00
1FC00F80
7FC00F80
7FF8F780
0FC00780
1FBCE790
7F18C7F0
7E0007F0
7F0007E0
3F0007E0
FF070FE0
3F8F1F80
3FCF3F80
1FE77F00
0FB8FE00
001F8800
000F0000
ENDCHAR
STARTCHAR 00F8
ENCODING 248
SWIDTH 800 0
DWIDTH 20 0
BBX 21 23 0 -4
BITMAP
01FC00
07FF00
0F0780
1C01C0
300060
70F870
61FC30
E3FE38
C7FF18
C78718
C60318
C60318
C60318
C38638
E1FC38
F0F878
700070
7C01F0
3F07E0
3FFFC0
0FFF80
07FF00
01FC00
ENDCHAR
STARTCHAR 00F9
ENCODING 249
SWIDTH 480 0
DWIDTH 12 0
BBX 14 29 0 -4
BITMAP
0780
0FC0
1CE0
1860
1860
1830
1C30
1C30
0E70
0FF0
0FF0
3FF0
FFF8
C78C
C78C
C78C
C78C
C78C
C78C
C78C
C78C
C30C
E01C
E01C
F87C
7FF8
7FF0
1FE0
0FC0
ENDCHAR
STARTCHAR 00FA
ENCODING 250
SWIDTH 480 0
DWIDTH 12 0
BBX 14 30 0 -4
BITMAP
01E0
03F0
0738
0618
0618
0C18
0C38
0C38
0E70
0FF0
0FF0
07E0
3BF0
FDF8
C78C
C78C
C78C
C78C
C78C
C78C
C78C
C78C
C30C
E01C
E01C
F87C
7FF8
7FF0
1FE0
0FC0
ENDCHAR
STARTCHAR 00FB
ENCODING 251
SWIDTH 480 0
DWIDTH 12 0
BBX 14 28 0 -4
BITMAP
03C0
07E0
0E70
1C38
381C
300C
3188
3FFC
3FFC
1FF8
3FF0
FDF8
C78C
C78C
C78C
C78C
C78C
C78C
C78C
C78C
C30C
E01C
E01C
F87C
7FF8
7FF0
1FE0
0FC0
ENDCHAR
STARTCHAR 00FC
ENCODING 252
SWIDTH 480 0
DWIDTH 12 0
BBX 14 29 0 -4
BITMAP
1FE0
3FF0
6338
6218
E338
7FF8
7FF8
3FF0
1CE0
0000
0000
3870
FDF8
C78C
C78C
C78C
C78C
C78C
C78C
C78C
C78C
C30C
E01C
E01C
F87C
7FF8
7FF0
1FE0
0FC0
ENDCHAR
STARTCHAR 00FE
ENCODING 254
SWIDTH 1120 0
DWIDTH 28 0
BBX 28 25 1 1
BITMAP
003C0000
007FE000
00FFF000
01FFF800
01FFFC00
03F0FE00
03E07F00
03E03F00
07C01F00
1FC00F80
7FC00F80
7FF8F780
0FC00780
1FBCE790
7F18C7F0
7E0007F0
7F0007E0
3F0007E0
FF070FE0
3F8F1F80
3FCF3F80
1FE77F00
0FB8FE00
001F8800
000F0000
ENDCHAR
STARTCHAR 00FF
ENCODING 255
SWIDTH 560 0
DWIDTH 14 0
BBX 14 35 0 -10
BITMAP
1FE0
3FF0
6338
6218
E338
7FF8
7FF8
3FF0
1CE0
0000
0000
3C70
FFF8
C78C
C78C
C78C
C78C
C78C
C78C
C78C
C78C
C30C
E00C
E00C
F80C
7F8C
7F8C
3C0C
0C1C
0C1C
0C7C
0FF8
0FF0
0FF0
07C0
ENDCHAR
STARTCHAR 0131
ENCODING 305
SWIDTH 200 0
DWIDTH 5 0
BBX 7 18 0 -4
BITMAP
78
FC
CE
C6
C6
C6
C6
C6
C6
C6
C6
C6
C6
CE
FE
FE
FC
78
ENDCHAR
STARTCHAR 0141
ENCODING 321
SWIDTH 1120 0
DWIDTH 28 0
BBX 28 25 1 1
BITMAP
003C0000
007FE000
00FFF000
01FFF800
01FFFC00
03F0FE00
03E07F00
03E03F00
07C01F00
1FC00F80
7FC00F80
7FF8F780
0FC00780
1FBCE790
7F18C7F0
7E0007F0
7F0007E0
3F0007E0
FF070FE0
3F8F1F80
3FCF3F80
1FE77F00
0FB8FE00
001F8800
000F0000
ENDCHAR
STARTCHAR 0142
ENCODING 322
SWIDTH 1120 0
DWIDTH 28 0
BBX 28 25 1 1
BITMAP
003C0000
007FE000
00FFF000
01FFF800
01FFFC00
03F0FE00
03E07F00
03E03F00
07C01F00
1FC00F80
7FC00F80
7FF8F780
0FC00780
1FBCE790
7F18C7F0
7E0007F0
7F0007E0
3F0007E0
FF070FE0
3F8F1F80
3FCF3F80
1FE77F00
0FB8FE00
001F8800
000F0000
ENDCHAR
STARTCHAR 0152
ENCODING 338
SWIDTH 1080 0
DWIDTH 27 0
BBX 28 23 0 -4
BITMAP
01F807C0
07FF1FE0
1E07F870
3801E030
70004030
60F801F0
E3FC07F0
C3FE0FE0
C7FF0FE0
C70F0070
C6030030
C6030070
C6030FF0
C30E0FF0
E3FC07E0
E0F801E0
F0000070
7800C030
7E03F070
3FFFFFF0
1FFFFFF0
07FF3FE0
01FC07C0
ENDCHAR
STARTCHAR 0153
ENCODING 339
SWIDTH 880 0
DWIDTH 22 0
BBX 24 18 0 -4
BITMAP
07E3F0
1FFFFC
38181E
700007
E00003
C38187
C7C30F
C7E31F
C7E33E
C7C3FE
C381FC
E0000E
F00006
F81C0C
7FFFFE
3FFFFE
1FFFFC
07E3F8
ENDCHAR
STARTCHAR 0160
ENCODING 352
SWIDTH 440 0
DWIDTH 11 0
BBX 13 30 0 -4
BITMAP
1CE0
3FF0
6318
6018
7030
7878
7CF8
3FF0
1FF0
0FD8
0F98
1818
1878
18F8
18F0
18E0
18C0
18C0
18C0
18C0
18C0
38C0
70C0
C1C0
C1C0
C3C0
FF80
FF80
FF00
7C00
ENDCHAR
STARTCHAR 0161
ENCODING 353
SWIDTH 440 0
DWIDTH 11 0
BBX 13 25 0 -4
BITMAP
1CE0
3FF0
6318
6018
7030
7878
7CF8
3FF0
1FF0
0FD8
0F98
1818
1878
18F8
18F8
18F0
38C0
F0C0
C1C0
C1C0
C3C0
FF80
FF80
FF00
7C00
ENDCHAR
STARTCHAR 0178
ENCODING 376
SWIDTH 520 0
DWIDTH 13 0
BBX 14 34 0 -4
BITMAP
1FE0
3FF0
6338
6218
E338
7FF8
7FF8
3FF0
1CE0
0000
0000
3870
FCF8
C78C
C78C
C78C
C78C
C78C
C78C
C30C
E00C
E00C
F80C
C78C
C78C
C78C
C30C
E01C
E01C
F87C
7FF8
7FF0
1FE0
0FC0
ENDCHAR
STARTCHAR 017D
ENCODING 381
SWIDTH 480 0
DWIDTH 12 0
BBX 15 30 0 -4
BITMAP
1CE0
3FF0
6318
6018
7030
7878
7CF8
3FFC
7FFE
6FC6
6786
3006
7F8E
7F0E
3F1E
1E3C
0E38
0C78
1870
38F0
31E0
71FC
63FE
E006
C006
C006
FFFE
FFFE
FFFE
7FFC
ENDCHAR
STARTCHAR 017E
ENCODING 382
SWIDTH 440 0
DWIDTH 11 0
BBX 15 25 0 -4
BITMAP
1CE0
3FF0
6318
6018
7030
7878
7CF8
3FFC
7FFE
6FC6
6786
600E
7E0E
7C1E
3C3C
3878
70F0
61F8
C00C
C00C
C00C
FFFC
FFFC
FFFC
7FF0
ENDCHAR
STARTCHAR 0192
ENCODING 402
SWIDTH 480 0
DWIDTH 12 0
BBX 15 29 -2 -10
BITMAP
00F8
01FC
0786
0606
0E04
0C3E
0C7E
0C7C
0C78
0C60
1C70
3838
3018
3018
3838
3C78
3C78
1C70
0C70
7C60
F860
C060
C0E0
C1E0
C3C0
FFC0
FF80
FF00
3C00
ENDCHAR
STARTCHAR 02C6
ENCODING 710
SWIDTH 400 0
DWIDTH 10 0
BBX 12 11 0 14
BITMAP
0E00
1F80
39C0
60E0
C070
C030
C660
FFF0
FFF0
FFE0
7FC0
ENDCHAR
STARTCHAR 02C7
ENCODING 711
SWIDTH 400 0
DWIDTH 10 0
BBX 12 11 0 14
BITMAP
7BC0
FFE0
C670
C030
C060
E0F0
F9F0
7FE0
3FC0
1F80
0E00
ENDCHAR
STARTCHAR 02C9
ENCODING 713
SWIDTH 560 0
DWIDTH 14 0
BBX 12 9 1 14
BITMAP
3FE0
7FF0
6030
C030
6030
FFF0
7FF0
7FF0
3FE0
ENDCHAR
STARTCHAR 02D8
ENCODING 728
SWIDTH 440 0
DWIDTH 11 0
BBX 11 12 1 13
BITMAP
7B80
FFC0
CCE0
C460
C460
C0E0
C0E0
F1E0
FFC0
7FC0
7F80
1F00
ENDCHAR
STARTCHAR 02D9
ENCODING 729
SWIDTH 440 0
DWIDTH 11 0
BBX 7 10 2 13
BITMAP
3C
7E
66
C6
C6
E6
FE
7E
7E
3C
ENDCHAR
STARTCHAR 02DA
ENCODING 730
SWIDTH 280 0
DWIDTH 7 0
BBX 10 11 0 14
BITMAP
3C00
7E00
E600
C300
CF00
CFC0
E700
FF00
FE00
7E00
3C00
ENDCHAR
STARTCHAR 02DB
ENCODING 731
SWIDTH 480 0
DWIDTH 12 0
BBX 8 8 4 -8
BITMAP
E0
E0
E0
F0
FF
7F
3F
1F
ENDCHAR
STARTCHAR 02DC
ENCODING 732
SWIDTH 400 0
DWIDTH 10 0
BBX 12 10 0 13
BITMAP
3FC0
7FE0
E060
C030
C060
CCF0
FFF0
FFE0
FFC0
7780
ENDCHAR
STARTCHAR 02DD
ENCODING 733
SWIDTH 920 0
DWIDTH 23 0
BBX 22 20 1 0
BITMAP
7FFFFC
EFFBFC
FFFFFC
E8AA44
F5ABB4
EB4A54
EFFFFC
CF5FFC
FF5FFC
FF5FFC
C3530C
D95964
DD5D74
CD4934
E56394
FFFFFC
FFFFBC
EF55FC
ED75EC
7FFFFC
ENDCHAR
STARTCHAR 0394
ENCODING 916
SWIDTH 1120 0
DWIDTH 28 0
BBX 28 25 1 1
BITMAP
003C0000
007FE000
00FFF000
01FFF800
01FFFC00
03F0FE00
03E07F00
03E03F00
07C01F00
1FC00F80
7FC00F80
7FF8F780
0FC00780
1FBCE790
7F18C7F0
7E0007F0
7F0007E0
3F0007E0
FF070FE0
3F8F1F80
3FCF3F80
1FE77F00
0FB8FE00
001F8800
000F0000
ENDCHAR
STARTCHAR 03A9
ENCODING 937
SWIDTH 1120 0
DWIDTH 28 0
BBX 28 25 1 1
BITMAP
003C0000
007FE000
00FFF000
01FFF800
01FFFC00
03F0FE00
03E07F00
03E03F00
07C01F00
1FC00F80
7FC00F80
7FF8F780
0FC00780
1FBCE790
7F18C7F0
7E0007F0
7F0007E0
3F0007E0
FF070FE0
3F8F1F80
3FCF3F80
1FE77F00
0FB8FE00
001F8800
000F0000
ENDCHAR
STARTCHAR 03BC
ENCODING 956
SWIDTH 720 0
DWIDTH 18 0
BBX 19 24 0 -10
BITMAP
78F000
FDF800
CF9C00
C78C00
C78C00
C78C00
C78C00
C78C00
C78C00
C78F80
C70FC0
C000E0
C00060
C060C0
C7FFE0
C7FFE0
C7FFC0
C7CF80
C60000
CE0000
FE0000
FE0000
FC0000
780000
ENDCHAR
STARTCHAR 03C0
ENCODING 960
SWIDTH 560 0
DWIDTH 14 0
BBX 15 18 0 -4
BITMAP
7FF8
FFFC
C00E
C006
C006
F8C6
F8C6
F8C6
38C6
18C6
18C6
18C6
18C6
19CE
1FFE
1FFE
1FFC
0F78
ENDCHAR
STARTCHAR 2010
ENCODING 8208
SWIDTH 280 0
DWIDTH 7 0
BBX 7 9 0 2
BITMAP
38
7C
C6
C6
C6
FE
FE
7C
38
ENDCHAR
STARTCHAR 2013
ENCODING 8211
SWIDTH 440 0
DWIDTH 11 0
BBX 13 9 0 0
BITMAP
7FE0
FFF0
C038
C018
C030
FFF8
FFF8
FFF0
7FE0
ENDCHAR
STARTCHAR 2014
ENCODING 8212
SWIDTH 640 0
DWIDTH 16 0
BBX 18 9 0 0
BITMAP
7FFF00
FFFF80
C001C0
C000C0
C00180
FFFFC0
FFFFC0
FFFF80
7FFF00
ENDCHAR
STARTCHAR 2018
ENCODING 8216
SWIDTH 240 0
DWIDTH 6 0
BBX 7 13 0 6
BITMAP
38
7C
EE
C6
C6
C6
C6
C6
EE
FE
FE
7C
38
ENDCHAR
STARTCHAR 2019
ENCODING 8217
SWIDTH 240 0
DWIDTH 6 0
BBX 7 13 0 6
BITMAP
38
7C
EE
C6
C6
C6
C6
C6
EE
FE
FE
7C
38
ENDCHAR
STARTCHAR 201A
ENCODING 8218
SWIDTH 280 0
DWIDTH 7 0
BBX 7 13 0 -7
BITMAP
38
7C
EE
C6
C6
C6
C6
C6
EE
FE
FE
7C
38
ENDCHAR
STARTCHAR 201C
ENCODING 8220
SWIDTH 480 0
DWIDTH 12 0
BBX 13 13 0 6
BITMAP
3DE0
7FF0
EF38
C618
C618
C618
C618
C618
EF38
FFF8
FFF8
7FF0
39E0
ENDCHAR
STARTCHAR 201D
ENCODING 8221
SWIDTH 440 0
DWIDTH 11 0
BBX 13 13 0 6
BITMAP
3DE0
7FF0
EF38
C618
C618
C618
C618
C618
EF38
FFF8
FFF8
7FF0
39E0
ENDCHAR
STARTCHAR 201E
ENCODING 8222
SWIDTH 520 0
DWIDTH 13 0
BBX 14 13 0 -7
BITMAP
3870
7CF8
EFDC
C78C
C78C
C78C
C78C
C78C
EFDC
FFFC
FFFC
7CF8
3870
ENDCHAR
STARTCHAR 2020
ENCODING 8224
SWIDTH 1160 0
DWIDTH 29 0
BBX 28 25 1 1
BITMAP
00380000
007FE000
00FFF000
01FFF800
01FFFC00
03F0FE00
03E07F00
07E03F00
07C01F00
1FC00F80
FFC00F80
7FF8F780
1F800780
1FBCE790
7F18C7F0
7E0007F0
7E0007E0
3F0007E0
FF070FE0
3F8F1F80
3FCF3F80
1FE77F00
0FB8FE00
001F8800
000F0000
ENDCHAR
STARTCHAR 2021
ENCODING 8225
SWIDTH 1120 0
DWIDTH 28 0
BBX 28 25 1 1
BITMAP
003C0000
007FE000
00FFF000
01FFF800
01FFFC00
03F0FE00
03E07F00
03E03F00
07C01F00
1FC00F80
7FC00F80
7FF8F780
0FC00780
1FBCE790
7F18C7F0
7E0007F0
7F0007E0
3F0007E0
FF070FE0
3F8F1F80
3FCF3F80
1FE77F00
0FB8FE00
001F8800
000F0000
ENDCHAR
STARTCHAR 2022
ENCODING 8226
SWIDTH 360 0
DWIDTH 9 0
BBX 10 12 0 1
BITMAP
1E00
7F00
E380
C1C0
C0C0
C0C0
C1C0
E3C0
FFC0
FF80
7F00
3E00
ENDCHAR
STARTCHAR 2026
ENCODING 8230
SWIDTH 800 0
DWIDTH 20 0
BBX 19 10 1 -4
BITMAP
38E380
7DF7C0
E7BCE0
C31860
C31860
E7BCE0
FFFFE0
FFFFE0
7FFFC0
3DE780
ENDCHAR
STARTCHAR 2030
ENCODING 8240
SWIDTH 840 0
DWIDTH 21 0
BBX 22 28 0 -7
BITMAP
001C00
003E00
3E3700
7F6300
E3E300
D1E700
D8C700
D8C700
D1CE00
E38E00
FF8E00
FF9C00
7F1F00
3F3F80
0724C0
062640
064660
0C4470
0C6098
0CF0DC
18F8CC
18F888
19FC1C
19DE3C
1FCFFC
1F8FF8
1F87F0
0F03E0
ENDCHAR
STARTCHAR 2039
ENCODING 8249
SWIDTH 360 0
DWIDTH 9 0
BBX 9 14 0 -2
BITMAP
0E00
1F00
3980
7180
E180
C380
C380
E180
F180
F980
7F80
3F80
1F00
0E00
ENDCHAR
STARTCHAR 203A
ENCODING 8250
SWIDTH 360 0
DWIDTH 9 0
BBX 9 14 0 -2
BITMAP
3800
7C00
CE00
C700
C380
E180
E180
C380
C780
CF80
FF00
FE00
7C00
3800
ENDCHAR
STARTCHAR 2044
ENCODING 8260
SWIDTH 480 0
DWIDTH 12 0
BBX 13 28 0 -7
BITMAP
00F0
01F8
0198
0398
0318
0338
0738
0638
0678
0C70
0C70
0CF0
18E0
18E0
19C0
31C0
31C0
7380
6380
6780
E700
C700
CF00
CE00
FE00
FE00
7C00
3800
ENDCHAR
STARTCHAR 2122
ENCODING 8482
SWIDTH 640 0
DWIDTH 16 0
BBX 17 13 0 6
BITMAP
600000
F1DC00
D3FF00
DF2300
C20380
DECD80
DECD80
DECD80
FDCD80
FFFF80
FFFF80
7FFF80
3F7F00
ENDCHAR
STARTCHAR 2126
ENCODING 8486
SWIDTH 1120 0
DWIDTH 28 0
BBX 28 25 1 1
BITMAP
003C0000
007FE000
00FFF000
01FFF800
01FFFC00
03F0FE00
03E07F00
03E03F00
07C01F00
1FC00F80
7FC00F80
7FF8F780
0FC00780
1FBCE790
7F18C7F0
7E0007F0
7F0007E0
3F0007E0
FF070FE0
3F8F1F80
3FCF3F80
1FE77F00
0FB8FE00
001F8800
000F0000
ENDCHAR
STARTCHAR 2202
ENCODING 8706
SWIDTH 1120 0
DWIDTH 28 0
BBX 28 25 1 1
BITMAP
003C0000
007FE000
00FFF000
01FFF800
01FFFC00
03F0FE00
03E07F00
03E03F00
07C01F00
1FC00F80
7FC00F80
7FF8F780
0FC00780
1FBCE790
7F18C7F0
7E0007F0
7F0007E0
3F0007E0
FF070FE0
3F8F1F80
3FCF3F80
1FE77F00
0FB8FE00
001F8800
000F0000
ENDCHAR
STARTCHAR 2206
ENCODING 8710
SWIDTH 1120 0
DWIDTH 28 0
BBX 28 25 1 1
BITMAP
003C0000
007FE000
00FFF000
01FFF800
01FFFC00
03F0FE00
03E07F00
03E03F00
07C01F00
1FC00F80
7FC00F80
7FF8F780
0FC00780
1FBCE790
7F18C7F0
7E0007F0
7F0007E0
3F0007E0
FF070FE0
3F8F1F80
3FCF3F80
1FE77F00
0FB8FE00
001F8800
000F0000
ENDCHAR
STARTCHAR 220F
ENCODING 8719
SWIDTH 520 0
DWIDTH 13 0
BBX 15 23 0 -4
BITMAP
7FF8
FFFC
C00E
C006
E006
F8C6
F8C6
F8C6
38C6
18C6
18C6
18C6
18C6
18C6
18C6
18C6
18C6
18C6
19CE
1FFE
1FFE
1FFC
0F78
ENDCHAR
STARTCHAR 2211
ENCODING 8721
SWIDTH 1120 0
DWIDTH 28 0
BBX 28 25 1 1
BITMAP
003C0000
007FE000
00FFF000
01FFF800
01FFFC00
03F0FE00
03E07F00
03E03F00
07C01F00
1FC00F80
7FC00F80
7FF8F780
0FC00780
1FBCE790
7F18C7F0
7E0007F0
7F0007E0
3F0007E0
FF070FE0
3F8F1F80
3FCF3F80
1FE77F00
0FB8FE00
001F8800
000F0000
ENDCHAR
STARTCHAR 2219
ENCODING 8729
SWIDTH 240 0
DWIDTH 6 0
BBX 7 10 0 -4
BITMAP
38
7C
EE
C6
C6
EE
FE
FE
7C
38
ENDCHAR
STARTCHAR 221A
ENCODING 8730
SWIDTH 1120 0
DWIDTH 28 0
BBX 28 25 1 1
BITMAP
003C0000
007FE000
00FFF000
01FFF800
01FFFC00
03F0FE00
03E07F00
03E03F00
07C01F00
1FC00F80
7FC00F80
7FF8F780
0FC00780
1FBCE790
7F18C7F0
7E0007F0
7F0007E0
3F0007E0
FF070FE0
3F8F1F80
3FCF3F80
1FE77F00
0FB8FE00
001F8800
000F0000
ENDCHAR
STARTCHAR 221E
ENCODING 8734
SWIDTH 920 0
DWIDTH 23 0
BBX 21 20 2 0
BITMAP
400800
000000
5CBB78
5D2A48
512A48
5F4938
400000
834000
034000
235020
FB5CF0
CF4598
8F4788
CF6D88
6F7CE8
000000
000000
0804C0
4FFDE8
4D7F90
ENDCHAR
STARTCHAR 222B
ENCODING 8747
SWIDTH 440 0
DWIDTH 11 0
BBX 16 29 -4 -10
BITMAP
007E
01FF
03C3
0303
0703
063F
067F
067F
067C
0660
0660
0660
0660
0660
0660
0660
0660
0660
0660
3E60
7C60
E060
C0E0
C0E0
C3E0
FFC0
FF80
7F00
3E00
ENDCHAR
STARTCHAR 2248
ENCODING 8776
SWIDTH 600 0
DWIDTH 15 0
BBX 16 31 0 -17
BITMAP
07E0
1FF0
383C
700C
E00E
C386
C7C7
C7E3
C7E3
C7E3
C3E3
E0E3
F063
F8E3
7FE3
7803
7007
6007
C00E
C3FE
C7FC
C7F8
C7FC
C7FE
C007
E003
F807
7FFF
7FFF
3FFE
0FFC
ENDCHAR
STARTCHAR 2260
ENCODING 8800
SWIDTH 1120 0
DWIDTH 28 0
BBX 28 25 1 1
BITMAP
003C0000
007FE000
00FFF000
01FFF800
01FFFC00
03F0FE00
03E07F00
03E03F00
07C01F00
1FC00F80
7FC00F80
7FF8F780
0FC00780
1FBCE790
7F18C7F0
7E0007F0
7F0007E0
3F0007E0
FF070FE0
3F8F1F80
3FCF3F80
1FE77F00
0FB8FE00
001F8800
000F0000
ENDCHAR
STARTCHAR 2264
ENCODING 8804
SWIDTH 400 0
DWIDTH 10 0
BBX 11 18 0 -4
BITMAP
0700
0F80
19C0
30C0
7180
61C0
61C0
61C0
70C0
7980
FFC0
C0E0
C060
C0E0
FFE0
FFE0
FFC0
7F80
ENDCHAR
STARTCHAR 2265
ENCODING 8805
SWIDTH 400 0
DWIDTH 10 0
BBX 11 18 0 -4
BITMAP
3C00
7E00
6700
6380
6180
70C0
70C0
61C0
63C0
6780
FFC0
C0E0
C060
C0E0
FFE0
FFE0
FFC0
7F80
ENDCHAR
STARTCHAR 22F2
ENCODING 8946
SWIDTH 600 0
DWIDTH 15 0
BBX 16 31 0 -17
BITMAP
07E0
1FF0
383C
700C
E00E
C386
C7C7
C7E3
C7E3
C7E3
C3E3
E0E3
F063
F8E3
7FE3
7803
7007
6007
C00E
C3FE
C7FC
C7F8
C7FC
C7FE
C007
E003
F807
7FFF
7FFF
3FFE
0FFC
ENDCHAR
STARTCHAR 25CA
ENCODING 9674
SWIDTH 1120 0
DWIDTH 28 0
BBX 28 25 1 1
BITMAP
003C0000
007FE000
00FFF000
01FFF800
01FFFC00
03F0FE00
03E07F00
03E03F00
07C01F00
1FC00F80
7FC00F80
7FF8F780
0FC00780
1FBCE790
7F18C7F0
7E0007F0
7F0007E0
3F0007E0
FF070FE0
3F8F1F80
3FCF3F80
1FE77F00
0FB8FE00
001F8800
000F0000
ENDCHAR
STARTCHAR F001
ENCODING 61441
SWIDTH 760 0
DWIDTH 19 0
BBX 20 23 0 -4
BITMAP
0FC1C0
1FE3E0
387630
601E30
E00E30
C30FF0
C78FF0
C78E30
C78E30
C7FE30
C7FE30
C00E30
C00E30
C00E30
C7FE30
C7FE30
C7FE30
C7FE30
C60630
FE07F0
FE07F0
FE07F0
3801C0
ENDCHAR
STARTCHAR F002
ENCODING 61442
SWIDTH 760 0
DWIDTH 19 0
BBX 20 23 0 -4
BITMAP
0FC1E0
1FE7F0
387630
601E30
E00E30
C30E30
C78E30
C78E30
C78E30
C7FE30
C7FE30
C00E30
C00E30
C00E30
C7FE30
C7FE30
C7FE30
C7FE30
C60630
FE07F0
FE07F0
FE07F0
3801C0
ENDCHAR
ENDFONT
